<?xml version="1.0" encoding="utf-8" ?>
<svg xmlns="http://www.w3.org/2000/svg" xmlns:xlink="http://www.w3.org/1999/xlink" width="512" height="288">
	<path fill="#026A6F" transform="scale(0.281319 0.28125)" d="M0 1019.56L0 -0L1820 0L1820 1019.56L1820 1024L0 1024L0 1019.56Z"/>
	<path fill="#035D61" transform="scale(0.281319 0.28125)" d="M1525.46 368.658L1543.96 368.758C1538.38 372.303 1533.14 371.823 1526.79 371.184L1527.19 370.222L1525.46 368.658Z"/>
	<path fill="#035D61" transform="scale(0.281319 0.28125)" d="M1393 368.094L1424.54 368.278L1424.05 370.188C1422.66 371.163 1421.89 371.985 1420.17 372.131C1416.98 372.4 1414.33 371.715 1411.21 371.45C1405.05 370.927 1397.92 372.209 1393 368.094Z"/>
	<path fill="#094851" transform="scale(0.281319 0.28125)" d="M1427.18 273.843L1424.1 275.751C1421.43 275.463 1418.84 274.306 1416.44 273.148C1411.5 270.766 1402.56 264.946 1400.77 259.727C1408.08 264.463 1414.58 268.93 1423.52 269.617C1425.44 269.765 1426.67 269.256 1427.16 271.599C1427.3 272.288 1427.21 273.157 1427.18 273.843Z"/>
	<path fill="#A2CCCD" transform="scale(0.281319 0.28125)" d="M464.526 568.492L458.559 567.785C457.438 565.776 457.858 564.755 458.11 562.585C461.995 561.443 466.616 561.869 470.65 561.842L492.304 562.036C493.544 564.091 493.011 565.395 492.75 567.677L491.21 568.75L464.526 568.492Z"/>
	<path fill="#035D61" transform="scale(0.281319 0.28125)" d="M465.441 425.054C470.361 424.623 474.175 425.22 478.83 426.843C482.661 428.179 487.404 427.398 491.436 427.878C494.379 428.228 496.959 429.27 499.972 429.388L499.872 448.332C488.005 442.66 472.711 436.808 465.441 425.054Z"/>
	<path fill="#C7E0E0" transform="scale(0.281319 0.28125)" d="M724.214 720.412C732.479 718.14 749.174 723.587 755.354 718.124L754.571 816.398L753.638 816.365L753.542 757.785C753.542 751.644 755.025 740.136 752.763 734.667L748.659 734.309L748.354 734.063L747.822 733.692C743.223 730.24 730.43 731.11 724.456 730.812C723.234 729.372 724.129 722.631 724.214 720.412Z"/>
	<path fill="#3A3E40" transform="scale(0.281319 0.28125)" d="M464.526 568.492L491.21 568.75C489.726 573.673 489.629 577.99 489.711 583.088C489.768 586.614 490.57 590.326 488.844 593.428L462.676 593.591L462.135 569.333L464.526 568.492Z"/>
	<path fill="#FEFEFE" transform="scale(0.281319 0.28125)" d="M899.312 202.222L901.103 203.111L902.572 383.131L902.513 415.239C902.493 419.661 903.274 426.058 901.558 430.082L898.447 429.188C897.475 426.893 897.486 207.721 899.312 202.222Z"/>
	<path fill="#FEFEFE" transform="scale(0.281319 0.28125)" d="M655.746 716.56L656.082 710.222C658.231 708.767 660.693 709.169 663.201 709.132L679.19 708.983C680.656 708.974 683.702 709.358 685.018 708.953C685.458 708.817 686.784 707.276 687.204 706.878L689.165 709.116C694.437 709.117 719.695 710.391 722.277 708.042C723.071 707.319 723.438 706.151 723.823 705.171L724.578 705.824L724.32 708C726.351 709.137 728.86 708.733 731.132 708.732C736.884 708.731 750.335 706.999 755.127 709.488L755.354 718.124C749.174 723.587 732.479 718.14 724.214 720.412L722.436 720.474C718.789 719.261 712.183 720.085 708.158 720.06C701.76 720.02 694.651 718.768 688.379 719.885L686.817 719.938C684.26 720.547 680.251 720.018 677.518 720.045C670.962 720.108 663.617 720.843 657.173 719.79L655.746 716.56Z"/>
	<path fill="#FEFEFE" transform="scale(0.281319 0.28125)" d="M1345.35 458.068L1342.76 456.301C1337.65 452.238 1334.76 447.745 1334.11 441.167C1333.64 436.391 1335.81 430.176 1338.87 426.487C1342.38 422.255 1346.96 420.108 1352.39 419.604C1357.62 419.119 1361.12 420.426 1365.08 423.868C1367.2 425.704 1371.06 430.634 1371.45 433.376C1371.93 436.646 1370.78 441.009 1371.01 444.527L1371.06 445.215C1370.26 450.204 1368.06 453.626 1363.91 456.565C1359.97 459.346 1355.09 460.195 1350.35 459.353L1345.35 458.068Z"/>
	<path fill="#094851" transform="scale(0.281319 0.28125)" d="M1348.64 425.333C1351.23 424.668 1354.62 424.586 1357.16 425.42C1361.05 426.694 1364.79 429.552 1366.54 433.333C1367.54 435.502 1369.05 439.556 1368.11 441.877C1365.73 447.729 1362.91 450.823 1357.35 453.698C1353.66 454.169 1350.36 454.28 1346.78 453.077C1344.04 452.155 1341.07 449.596 1339.9 446.881C1338.14 442.8 1337.99 438.285 1339.58 434.121C1341.13 430.042 1344.82 427.144 1348.64 425.333Z"/>
	<path fill="#0E777B" transform="scale(0.281319 0.28125)" d="M1347.93 428C1349.67 427.424 1351.44 427.679 1353.23 427.798C1356.06 430.639 1355.51 432.826 1357.24 436C1358.19 437.754 1360.78 439.704 1361.4 441.333C1361.62 441.898 1361.48 443.338 1361.51 444C1359.43 446.626 1356.44 448.091 1353.59 449.745C1351.75 449.858 1349.97 449.881 1348.14 449.61C1345.9 449.276 1344.31 448.975 1343.02 446.971C1341.11 444.004 1340.85 438.812 1341.59 435.446C1342.44 431.549 1344.76 429.965 1347.93 428Z"/>
	<path fill="#094851" transform="scale(0.281319 0.28125)" d="M320.368 332.783L321.255 327.272L322.712 326.771C327.754 333.552 335.567 340.348 338.104 348.545C339.518 353.113 339.253 359.731 338.497 364.426C337.758 369.021 335.711 373.843 331.859 376.598C330.911 377.275 330.104 377.744 328.998 378.072C322.19 379.558 313.493 378.686 306.448 378.768L305.969 348.889C312.908 344.041 317.282 341.075 320.368 332.783Z"/>
	<path fill="#035D61" transform="scale(0.281319 0.28125)" d="M1171.97 600.094L1172.74 593.718L1174.38 592.99C1181.01 598.345 1185.86 612.867 1189.68 620.61C1194.04 629.439 1198.6 638.139 1204.58 645.948C1208.65 651.278 1213.99 655.651 1218.68 660.437C1220.46 662.263 1222.92 664.254 1223.71 666.662L1224.35 668.164L1224.7 669.002L1225.33 670.306C1226.94 673.382 1225.97 680.418 1225.91 684C1223.72 680.872 1222.24 677.055 1219.69 674.222C1217.33 671.587 1214.58 671.404 1212.19 669.384C1210.52 667.978 1209.2 665.353 1207.66 663.661C1203.6 659.206 1196.05 653.746 1190.5 651.552C1183.52 648.788 1179.21 640.507 1175.1 634.769C1174.09 633.35 1172.17 631.941 1171.49 630.428C1171.31 630.027 1171.26 629.704 1171.16 629.265L1171.97 600.094Z"/>
	<path fill="#FEFEFE" transform="scale(0.281319 0.28125)" d="M1373.43 444.928L1373.46 437.778C1375.73 435.891 1380.77 436.658 1383.78 436.643L1414.11 436.559C1417.08 436.553 1422.7 437.227 1425.39 436.193C1428 435.187 1426.13 432.748 1428.71 431.188C1430.02 432.706 1430.54 434.147 1431.21 436.021C1438.09 437.621 1447.19 436.514 1454.29 436.485L1499.69 436.476C1504.4 436.496 1512.79 435.332 1516.7 437.778L1516.82 444C1513.01 447.161 1504.79 444.993 1499.78 446.072C1498.4 445.47 1495.72 445.803 1494.14 445.797L1479.66 445.749L1399.32 445.835C1392 445.84 1380.26 447.315 1373.43 444.928Z"/>
	<path fill="#7FC4BD" transform="scale(0.281319 0.28125)" d="M276.425 644.201C275.696 649.241 275.11 654.44 275.802 659.516C276.724 666.277 280.406 670.188 285.696 674.122C294.634 676.023 304.347 675.973 313.429 675.495C317.58 675.276 322.393 675.156 326.301 673.653C334.594 670.463 335.917 662.847 339.065 655.431C341.168 664.741 342.92 671.093 339.923 680.437C337.383 684.7 333.965 688.425 329.35 690.415C320.298 694.318 309.14 693.1 299.491 693.091C292.014 693.084 283.48 693.999 276.446 691.118C271.764 689.2 267.243 685.56 265.313 680.787C261.425 671.173 272.703 653.256 276.425 644.201Z"/>
	<path fill="#094851" transform="scale(0.281319 0.28125)" d="M1470.48 222.981C1470.48 221.004 1470.36 219.166 1471.15 217.309C1477.47 219.321 1485.9 232.215 1489.02 238.229C1492.35 244.656 1494.4 254.206 1492.11 261.206C1489.82 268.175 1482.97 277.135 1476.36 280.408C1466.83 285.126 1453.96 284.453 1444.23 280.98C1440.51 279.653 1436.19 278.425 1432.93 276.191L1432.38 272.884C1432.62 272.397 1433.13 270.996 1433.49 270.687C1435.25 269.155 1441.28 268.3 1443.65 267.343C1449.91 264.81 1455.18 260.073 1459.72 255.17C1468.8 245.354 1470.96 235.846 1470.48 222.981Z"/>
	<path fill="#FEFEFE" transform="scale(0.281319 0.28125)" d="M1171.16 629.265L1111.87 629.719C1115.72 624.547 1120.2 619.968 1124.63 615.298C1125.41 614.475 1128.45 611.807 1128.68 611.04C1129.2 609.302 1128.7 605.506 1128.7 603.588L1128.77 584.983L1171.73 584.756L1171.97 600.094L1171.16 629.265Z"/>
	<path fill="#EDF4F4" transform="scale(0.281319 0.28125)" d="M328.998 378.072C334.28 378.806 338.081 380.499 341.326 384.888C344.458 389.127 345.783 393.826 344.968 399.065C344.339 403.108 341.212 405.493 338.14 407.812L336.454 407.556C336.046 408 335.515 408.357 335.232 408.889C334.294 410.646 335.221 435.718 335.219 439.547C331.515 439.512 325.457 438.668 322.064 439.839C320.718 440.303 319.378 440.137 318.088 440.601L317.601 440.791C315.613 441.524 310.691 441.795 308.818 440.888C306.279 439.66 304.414 440.965 301.933 439.111C303.648 436.137 302.317 426.431 302.513 422.587C302.711 418.703 302.841 414.715 303.385 410.864C303.588 409.43 304.552 408.403 304.662 407.043C305.414 397.779 304.34 387.836 306.448 378.768C313.493 378.686 322.19 379.558 328.998 378.072Z"/>
	<path fill="#035D61" transform="scale(0.281319 0.28125)" d="M1371.06 445.215L1373.43 444.928C1380.26 447.315 1392 445.84 1399.32 445.835L1479.66 445.749L1494.14 445.797C1495.72 445.803 1498.4 445.47 1499.78 446.072L1519.19 446.484L1519.19 456.601L1390.16 457.028C1389.34 465.283 1388.5 471.187 1381.74 476.878C1378.66 479.475 1373.62 480.94 1369.61 480.512C1359.31 479.412 1350.86 471.857 1344.86 463.917C1343.86 462.588 1343.42 461.682 1343.4 460L1345.35 458.068L1350.35 459.353C1355.09 460.195 1359.97 459.346 1363.91 456.565C1368.06 453.626 1370.26 450.204 1371.06 445.215Z"/>
	<path fill="#094851" transform="scale(0.281319 0.28125)" d="M1635.87 754.612C1637.2 761.224 1638.16 766.864 1644.15 770.99C1646.56 772.647 1651.13 774.634 1654.09 773.953L1655.6 773.453L1656.39 773.205C1659.74 772.026 1662.72 768.935 1665.36 766.593L1666 826.609C1664.62 827.561 1663.48 827.747 1661.83 828C1656.43 835.437 1668.02 855.587 1653.63 858.06C1647.48 859.119 1641.47 857.558 1635.49 858.128C1623.36 859.282 1611.03 858.898 1598.77 858.889C1591.17 858.883 1582.87 859.543 1575.35 858.551C1582.06 857.374 1589.95 858.138 1596.78 858.117L1634.9 857.938C1633.77 839.125 1634.47 819.978 1634.52 801.128C1634.56 786.196 1633.53 770.247 1635.74 755.476L1635.87 754.612Z"/>
	<path fill="#094851" transform="scale(0.281319 0.28125)" d="M298.728 550.124C301.915 550.882 303.799 551.625 306.165 553.958L306.769 554.567L307.781 554.222C308.491 549.94 307.003 545.653 307.509 541.514C307.542 541.251 307.646 541.001 307.747 540.756C308.028 540.075 308.646 540.165 309.303 540.001C315.358 538.485 318.828 536.719 323.487 532.611C334.191 523.175 335.661 514.509 336.554 501.1L362.601 501.07C362.645 512.202 363.311 526.073 358.812 536.345C354.2 546.874 350.068 554.705 341.54 562.733C337.017 566.99 332.903 570.323 329.375 575.622C325.547 581.374 323.585 594.506 317.256 597.324C316.087 597.844 314.933 597.967 313.701 598.224L310.914 598.937C309.516 601.646 309.56 603.328 310.591 606.273C311.954 610.166 314.168 613.128 314.765 617.333L314.146 618.213L311.84 615.332C309.878 612.745 307.183 610.823 303.926 610.258L297.039 609.562L298.158 606.715L300.226 606.104C299.84 605.625 299.469 605.186 299.163 604.649C297.191 601.194 297.89 560.742 299.199 555.396L297.75 554.662C297.243 552.435 297.736 552.11 298.728 550.124Z"/>
	<path fill="#FEFEFE" transform="scale(0.281319 0.28125)" d="M299.199 555.396C302.831 557.984 306.041 561.407 308.199 565.333C308.212 572.126 309.39 602.116 306.147 606.073L300.226 606.104C299.84 605.625 299.469 605.186 299.163 604.649C297.191 601.194 297.89 560.742 299.199 555.396Z"/>
	<path fill="#FEFEFE" transform="scale(0.281319 0.28125)" d="M1047.16 841.984L1036.76 841.808L1037.47 742.892L1016.72 742.16C1016.73 736.048 1015.37 719.657 1018.97 714.85C1020.15 713.288 1022.3 712.074 1024.22 711.715C1029.14 710.797 1035.49 711.838 1040.54 711.876L1081.48 712.024C1089.09 712.037 1097.23 712.648 1104.76 711.518L1105.64 711.379L1105.67 742.929L1048.88 742.387L1048.7 777.607L1048.6 822.751C1048.59 828.147 1049.59 836.776 1048.03 841.786L1047.16 841.984Z"/>
	<path fill="#094851" transform="scale(0.281319 0.28125)" d="M1178.31 687.014C1181.94 686.875 1185.18 689.415 1187.71 691.805C1196.25 699.88 1202.83 711.087 1210.61 720.014C1212.99 722.751 1225.23 734.62 1225.26 737.233L1224.49 841.956L1170.85 841.695L1177.05 840.933C1177.4 840.474 1177.91 840.1 1178.11 839.556C1178.6 838.24 1178.13 834.392 1178.14 832.865L1178.21 812.172L1178.31 687.014Z"/>
	<path fill="#0E777B" transform="scale(0.281319 0.28125)" d="M1105.64 711.379C1106.52 710.701 1107.17 710.167 1108.28 709.935L1109.06 709.787C1110.78 708.065 1110.89 706.606 1111.5 704.338L1110.79 840.892L1111.09 841.737L1048.03 841.786C1049.59 836.776 1048.59 828.147 1048.6 822.751L1048.7 777.607L1048.88 742.387L1105.67 742.929L1105.64 711.379Z"/>
	<path fill="#094851" transform="scale(0.281319 0.28125)" d="M1048.7 777.607C1049.27 777.692 1050.66 777.718 1051.11 777.966C1053.17 779.102 1057.62 785.382 1059.7 787.463L1092.55 819.502C1097.44 824.292 1103.46 829.247 1107.59 834.659C1108.63 836.031 1109.28 837.523 1109.97 839.085L1110.79 840.892L1111.09 841.737L1048.03 841.786C1049.59 836.776 1048.59 828.147 1048.6 822.751L1048.7 777.607Z"/>
	<path fill="#094851" transform="scale(0.281319 0.28125)" d="M581.21 599.235C585.198 600.635 588.979 607.289 592.024 610.454C600.267 619.021 609.215 626.914 617.158 635.769L607.327 650.644C610.95 662.434 609.668 676.082 609.73 688.347L609.725 740.444L610.156 835.556C610.201 836.865 609.937 840.725 610.855 841.253C612.131 841.987 614.211 841.943 615.682 842.062C612.454 842.577 608.839 842.133 605.541 842.147L582.044 841.732L581.21 599.235Z"/>
	<path fill="#FEFEFE" transform="scale(0.281319 0.28125)" d="M0 1019.56L1820 1019.56L1820 1024L0 1024L0 1019.56Z"/>
	<path fill="#035D61" transform="scale(0.281319 0.28125)" d="M436.424 401.1C432.336 396.85 427.862 390.205 425.081 384.935C418.183 371.861 414.415 356.049 416.261 341.191C417.194 333.681 419.311 327.307 421.465 320.141C423.575 313.122 429.747 304.968 434.392 299.266C445.44 285.706 466.646 273.564 484.036 271.729C508.419 269.157 530.943 276.738 549.948 292.198C557.982 297.34 565.248 303.822 572.297 310.224C586.898 323.486 599.972 336.888 604.376 356.686C605.818 363.165 606.086 376.723 604.238 383.141C603.139 386.955 602.821 391.01 601.529 394.774C594.976 413.854 580.265 430.323 562.798 440.046C548.271 448.133 534.391 449.857 518.025 449.67C514.606 449.631 509.997 450.084 506.706 449.209C505.972 449.014 505.261 448.602 504.624 448.195L504.57 424.321L505.134 423.653C507.055 421.557 510.441 421.291 513.104 421.076L513.731 418.593C511.181 416.61 507.414 418.346 504.766 416.761C503.801 416.184 502.688 414.933 501.821 414.171C505.355 414.118 508.571 413.994 511.903 412.738C540.616 401.908 559.373 386.373 561.328 353.929C561.503 351.025 560.093 343.46 561.224 341.322L561.679 340.539L562.384 339.606L566.209 338.554L563.778 330.057C560.021 327.048 557.181 320.932 554.473 316.889C546.708 305.298 533.945 296.155 521.435 290.378C517.435 291.699 512.115 289.525 507.876 288.971C501.525 288.142 494.821 287.845 488.487 288.909C472.565 289.603 458.323 295.62 447.522 307.497L437.883 320.19C431.046 334.195 427.741 349.577 432.423 364.884C432.182 367.068 431.881 369.199 432.014 371.396L431.852 375.985L431.928 376.538C432.615 380.561 435.372 384.479 437.375 388L436.338 389.366C435.006 389.491 433.641 389.533 432.348 389.881C433.946 393.552 435.972 397.087 438.538 400.175L436.424 401.1Z"/>
	<path fill="#A2CCCD" transform="scale(0.281319 0.28125)" d="M566.209 338.554L570.889 340.393L570.655 357.333C568.399 359.008 566.561 357.718 564.527 359.023C564.417 354.087 564.876 344.459 561.679 340.539L562.384 339.606L566.209 338.554Z"/>
	<path fill="#0E777B" transform="scale(0.281319 0.28125)" d="M558.69 314.749L559.387 310.322L560.317 309.778C567.461 316.719 572.174 322.774 572.363 333.218C572.409 335.77 572.27 338.169 570.889 340.393L566.209 338.554L563.778 330.057C562.478 324.658 560.966 319.832 558.69 314.749Z"/>
	<path fill="#0E777B" transform="scale(0.281319 0.28125)" d="M427.306 328.45C428.592 330.765 428.096 333.023 427.864 335.556C426.316 337.938 427.768 339.609 426.946 341.778C425.829 344.722 425.113 353.787 426.118 356.898C427.218 360.302 426.735 363.288 427.82 366.667L428.008 368.444C430.667 370.163 430.917 371.565 431.591 374.7L431.852 375.985L431.928 376.538C432.615 380.561 435.372 384.479 437.375 388L436.338 389.366C435.006 389.491 433.641 389.533 432.348 389.881C430.364 385.694 428.463 381.138 427.534 376.59L425.238 366.667C424.642 364.974 424.674 362.831 423.948 361.41C423.747 361.017 423.63 360.919 423.555 360.444C422.724 355.169 422.671 344.84 424.341 340.009C424.828 338.6 424.014 336.518 424.358 335.111C424.955 332.667 425.838 330.655 427.306 328.45Z"/>
	<defs>
		<linearGradient id="gradient_0" gradientUnits="userSpaceOnUse" x1="439.62048" y1="341.32446" x2="423.00842" y2="345.6268">
			<stop offset="0" stop-color="#0B4641"/>
			<stop offset="1" stop-color="#007970"/>
		</linearGradient>
	</defs>
	<path fill="url(#gradient_0)" transform="scale(0.281319 0.28125)" d="M435.001 310.428L434.912 314.066L434.188 314.678C433.267 315.482 432.876 316.249 432.348 317.333L433.228 318.658L434.863 318.165L437.883 320.19C431.046 334.195 427.741 349.577 432.423 364.884C432.182 367.068 431.881 369.199 432.014 371.396L431.852 375.985L431.591 374.7C430.917 371.565 430.667 370.163 428.008 368.444L427.82 366.667C426.735 363.288 427.218 360.302 426.118 356.898C425.113 353.787 425.829 344.722 426.946 341.778C427.768 339.609 426.316 337.938 427.864 335.556C428.096 333.023 428.592 330.765 427.306 328.45C428.084 326.953 429.321 326.676 430.298 324.889C429.649 322.945 430.601 321.01 429.944 319.368C429.61 318.535 429.659 318.953 429.636 318.052C429.559 314.959 432.892 312.63 435.001 310.428Z"/>
	<path fill="#FEFEFE" transform="scale(0.281319 0.28125)" d="M438.419 304.767C438.58 303.75 438.846 302.727 439.45 301.875C442.129 298.096 445.779 295.723 449.509 293.188C460.537 285.69 468.864 282.768 481.806 280.107L488.046 279.202C509.768 276.928 528.685 284.321 545.34 297.858C550.988 303.271 555.047 307.826 558.69 314.749C560.966 319.832 562.478 324.658 563.778 330.057C560.021 327.048 557.181 320.932 554.473 316.889C546.708 305.298 533.945 296.155 521.435 290.378C507.984 283.252 492.801 277.426 477.475 282.137C462.241 286.82 449.645 293.295 438.419 304.767Z"/>
	<path fill="#FEFEFE" transform="scale(0.281319 0.28125)" d="M561.679 340.539C564.876 344.459 564.417 354.087 564.527 359.023C563.305 377.914 557.764 393.506 543.067 406.328C536.267 412.262 522.981 421.359 513.65 421.135L513.104 421.076L513.731 418.593C511.181 416.61 507.414 418.346 504.766 416.761C503.801 416.184 502.688 414.933 501.821 414.171C505.355 414.118 508.571 413.994 511.903 412.738C540.616 401.908 559.373 386.373 561.328 353.929C561.503 351.025 560.093 343.46 561.224 341.322L561.679 340.539Z"/>
	<path fill="#094851" transform="scale(0.281319 0.28125)" d="M438.419 304.767C449.645 293.295 462.241 286.82 477.475 282.137C492.801 277.426 507.984 283.252 521.435 290.378C517.435 291.699 512.115 289.525 507.876 288.971C501.525 288.142 494.821 287.845 488.487 288.909C472.565 289.603 458.323 295.62 447.522 307.497L437.883 320.19L434.863 318.165L433.228 318.658L432.348 317.333C432.876 316.249 433.267 315.482 434.188 314.678L434.912 314.066L435.001 310.428C436.162 308.268 438.38 307.364 438.419 304.767Z"/>
	<path fill="#FEFEFE" transform="scale(0.281319 0.28125)" d="M298.684 378.609L298.496 348.211L293.359 345.333C289.524 342.622 284.848 337.429 284.255 332.57C283.658 327.67 284.47 323.256 287.569 319.365C290.806 315.302 294.738 312.483 300.016 311.997C305.359 311.505 309.87 313.511 313.924 316.889C319.544 321.572 319.778 325.927 320.368 332.783C317.282 341.075 312.908 344.041 305.969 348.889L306.448 378.768C304.34 387.836 305.414 397.779 304.662 407.043C304.552 408.403 303.588 409.43 303.385 410.864C302.841 414.715 302.711 418.703 302.513 422.587C302.317 426.431 303.648 436.137 301.933 439.111C304.414 440.965 306.279 439.66 308.818 440.888C310.691 441.795 315.613 441.524 317.601 440.791L318.088 440.601C319.378 440.137 320.718 440.303 322.064 439.839C325.457 438.668 331.515 439.512 335.219 439.547L335.515 498.85L500.934 498.748C502.926 494.79 500.99 436.971 500.638 426.871L500.884 425.465C501.999 424.639 503.23 424.577 504.57 424.321L504.624 448.195L504.382 500.347L362.601 501.07L336.554 501.1C335.661 514.509 334.191 523.175 323.487 532.611C318.828 536.719 315.358 538.485 309.303 540.001C308.646 540.165 308.028 540.075 307.747 540.756C307.646 541.001 307.542 541.251 307.509 541.514C307.003 545.653 308.491 549.94 307.781 554.222L306.769 554.567L306.165 553.958C303.799 551.625 301.915 550.882 298.728 550.124C298.656 547.188 299.038 543.278 297.577 540.714C289.577 540.566 284.27 537.683 278.449 532.28C269.36 523.843 266.882 514.547 266.358 502.667C264.073 501.471 260.306 501.948 257.736 501.935L257.271 500.7L266.138 500.04L266.863 443.41L267.804 419.688C267.854 416.866 268.311 413.11 267.798 410.362C267.045 406.325 260.818 403.515 259.75 398.667C259.014 395.324 259.098 391.309 261.084 388.408C263.922 384.263 269.334 379.583 274.33 378.596C281.141 376.705 291.358 378.72 298.684 378.609Z"/>
	<path fill="#EDF4F4" transform="scale(0.281319 0.28125)" d="M274.33 378.596C281.141 376.705 291.358 378.72 298.684 378.609L299.437 408.285L274.771 408.347C274.691 398.748 273.216 387.964 274.33 378.596Z"/>
	<path fill="#EDF4F4" transform="scale(0.281319 0.28125)" d="M655.746 716.56L657.173 719.79C663.617 720.843 670.962 720.108 677.518 720.045C680.251 720.018 684.26 720.547 686.817 719.938L688.379 719.885C694.651 718.768 701.76 720.02 708.158 720.06C712.183 720.085 718.789 719.261 722.436 720.474L724.214 720.412C724.129 722.631 723.234 729.372 724.456 730.812C730.43 731.11 743.223 730.24 747.822 733.692L748.354 734.063L748.659 734.309L752.763 734.667C755.025 740.136 753.542 751.644 753.542 757.785L753.638 816.365L754.571 816.398C754.774 824.641 754.177 833.515 755.141 841.661L655.538 841.764L655.785 817.793L655.76 734.063L655.746 716.56Z"/>
	<path fill="#C7E0E0" transform="scale(0.281319 0.28125)" d="M655.746 716.56L657.173 719.79C663.617 720.843 670.962 720.108 677.518 720.045C680.251 720.018 684.26 720.547 686.817 719.938L686.491 731.583C679.763 731.182 667.413 729.257 661.984 733.429C661.1 734.074 657.051 733.963 655.76 734.063L655.746 716.56Z"/>
	<path fill="#C7E0E0" transform="scale(0.281319 0.28125)" d="M688.379 719.885C694.651 718.768 701.76 720.02 708.158 720.06C712.183 720.085 718.789 719.261 722.436 720.474L722.634 729.778L721.157 731.263L688.811 730.811L688.379 719.885Z"/>
	<path fill="#01A8A5" transform="scale(0.281319 0.28125)" d="M753.638 816.365C750.374 819.364 729.243 817.846 723.675 817.786L723.807 734.138L748.659 734.309L752.763 734.667C755.025 740.136 753.542 751.644 753.542 757.785L753.638 816.365Z"/>
	<path fill="#7FC4BD" transform="scale(0.281319 0.28125)" d="M661.984 733.429L688.181 733.724L688.167 818.168C678.057 818.252 665.737 819.353 655.785 817.793L655.76 734.063C657.051 733.963 661.1 734.074 661.984 733.429Z"/>
	<path fill="#01A8A5" transform="scale(0.281319 0.28125)" d="M696.785 733.778L722.651 734.304L722.715 799.917C722.714 803.622 723.868 812.82 722.684 816C722.458 816.606 721.923 817.046 721.542 817.569L717.381 818.017L689.593 817.819L689.462 756.071C689.474 749.809 688.159 739.771 690.054 733.982L696.785 733.778Z"/>
	<path fill="#FEFEFE" transform="scale(0.281319 0.28125)" d="M1111.5 704.338L1111.75 667.924L1178.11 667.748L1178.31 687.014L1178.21 812.172L1178.14 832.865C1178.13 834.392 1178.6 838.24 1178.11 839.556C1177.91 840.1 1177.4 840.474 1177.05 840.933L1170.85 841.695L1166.82 841.409C1163.17 842.322 1157.6 841.608 1153.7 841.6L1121.57 841.842L1111.09 841.737L1110.79 840.892L1111.5 704.338Z"/>
	<path fill="#FFB50E" transform="scale(0.281319 0.28125)" d="M1126.07 679.281L1165.31 679.708L1164.99 702.538L1125.89 703.154L1126.07 679.281Z"/>
	<path fill="#094851" transform="scale(0.281319 0.28125)" d="M1121.87 758.789L1122.1 741.381L1166.66 741.368L1166.92 798.23L1145.82 797.979L1146.32 766.332C1142.02 766.013 1137.7 765.658 1133.39 765.693C1130.02 765.721 1125.36 766.485 1122.36 764.889L1121.87 758.789Z"/>
	<path fill="#01A8A5" transform="scale(0.281319 0.28125)" d="M1121.87 758.789L1122.36 764.889C1125.36 766.485 1130.02 765.721 1133.39 765.693C1137.7 765.658 1142.02 766.013 1146.32 766.332L1145.82 797.979L1166.92 798.23L1166.79 830.667C1166.74 833.504 1165.73 838.957 1166.82 841.409C1163.17 842.322 1157.6 841.608 1153.7 841.6L1121.57 841.842L1121.87 758.789Z"/>
	<path fill="#FFB50E" transform="scale(0.281319 0.28125)" d="M1236.47 622.133C1236.93 608.932 1234.75 527.213 1238.29 522.417C1239.35 520.979 1240.95 519.836 1242.75 519.57C1248.86 518.667 1256.18 519.434 1262.41 519.408L1317.23 519.562L1450.49 519.339L1511.12 519.622C1514.79 519.746 1516.74 519.483 1519.76 521.699C1520.52 522.814 1521.21 524.069 1521.26 525.45C1521.55 532.87 1520.52 540.73 1520.5 548.236L1520.4 616.673L1520.36 622.666L1495.2 622.5L1494.93 582.32C1494.76 574.495 1495.19 566.14 1493.05 558.581C1475.52 556.723 1457.84 557.723 1440.22 557.751L1344.89 558.075L1293.41 557.825C1285.15 557.781 1275.39 556.368 1267.39 558.354C1264.23 564.039 1264.86 567.545 1264.12 573.778C1263.78 576.636 1263.14 578.29 1263.54 581.333L1265.42 622.666L1261.63 622.256L1236.47 622.133Z"/>
	<path fill="#99A18A" transform="scale(0.281319 0.28125)" d="M1261.63 622.256C1262.03 612.27 1260.31 567.134 1262.8 561.778C1263.84 559.543 1265.27 559.23 1267.39 558.354C1264.23 564.039 1264.86 567.545 1264.12 573.778C1263.78 576.636 1263.14 578.29 1263.54 581.333L1265.42 622.666L1261.63 622.256Z"/>
	<path fill="#7FC4BD" transform="scale(0.281319 0.28125)" d="M488.487 288.909C494.821 287.845 501.525 288.142 507.876 288.971C512.115 289.525 517.435 291.699 521.435 290.378C533.945 296.155 546.708 305.298 554.473 316.889C557.181 320.932 560.021 327.048 563.778 330.057L566.209 338.554L562.384 339.606L561.679 340.539L561.224 341.322C560.093 343.46 561.503 351.025 561.328 353.929C559.373 386.373 540.616 401.908 511.903 412.738C508.571 413.994 505.355 414.118 501.821 414.171C502.688 414.933 503.801 416.184 504.766 416.761C507.414 418.346 511.181 416.61 513.731 418.593L513.104 421.076C510.441 421.291 507.055 421.557 505.134 423.653L504.57 424.321C503.23 424.577 501.999 424.639 500.884 425.465L500.638 426.871L499.972 429.388C496.959 429.27 494.379 428.228 491.436 427.878C487.404 427.398 482.661 428.179 478.83 426.843C474.175 425.22 470.361 424.623 465.441 425.054C461.808 422.164 457.462 420.895 453.741 418.142C451.349 416.372 449.426 413.458 447.284 411.313C443.756 407.78 439.883 404.781 436.424 401.1L438.538 400.175C435.972 397.087 433.946 393.552 432.348 389.881C433.641 389.533 435.006 389.491 436.338 389.366L437.375 388C435.372 384.479 432.615 380.561 431.928 376.538L431.852 375.985L432.014 371.396C431.881 369.199 432.182 367.068 432.423 364.884C427.741 349.577 431.046 334.195 437.883 320.19L447.522 307.497C458.323 295.62 472.565 289.603 488.487 288.909Z"/>
	<path fill="#EDF4F4" transform="scale(0.281319 0.28125)" d="M474.367 379.6L458.124 379.111L458.6 376C462.682 374.203 470.587 375.178 475.183 375.185L474.367 379.6Z"/>
	<path fill="#C7E0E0" transform="scale(0.281319 0.28125)" d="M517.385 375.956C524.462 374.898 531.831 375.246 538.979 375.265L540.35 376.444L540.096 379.111C531.238 380.713 520.36 378.818 511.197 379.172L511.319 378.717L515.849 378.352L517.385 375.956Z"/>
	<path fill="#D8EBEF" transform="scale(0.281319 0.28125)" d="M475.183 375.185L500.869 375.343C506.273 375.31 512.107 374.665 517.385 375.956L515.849 378.352L511.319 378.717L511.197 379.172L474.367 379.6L475.183 375.185Z"/>
	<path fill="#FEFEFE" transform="scale(0.281319 0.28125)" d="M458.91 309.778C463.456 308.308 524.664 308.796 527.934 310.347C528.741 310.73 528.927 312.206 529.204 313.048C523.808 314.48 515.574 313.212 509.778 313.192C493.138 313.134 475.543 314.501 459.071 312.444L458.91 309.778Z"/>
	<path fill="#EDF4F4" transform="scale(0.281319 0.28125)" d="M457.575 366.667C463.344 365.033 492.271 365.447 497.266 367.104L497.656 367.246C497.912 367.07 498.42 366.684 498.753 366.556C500.993 365.698 538.522 366.364 540.122 367.107L539.868 369.971C537.284 370.519 533.697 369.931 530.981 369.997L486.657 370.344C484.021 370.338 476.786 371.465 474.748 370.182L474.106 369.738C468.876 370.63 463.407 370.467 458.11 370.581L456.816 369.333L457.575 366.667Z"/>
	<path fill="#FEFEFE" transform="scale(0.281319 0.28125)" d="M510.478 355.475C512.862 355.983 516.279 355.588 518.769 355.596L539.868 354.821L540.822 356.889L540.01 358.779C523.121 360.124 506.022 359.187 489.102 359.572L468.54 360.162C464.744 360.251 460.592 360.737 456.868 359.89C456.409 357.81 456.854 357.513 457.778 355.661L483.882 355.634C484.761 355.657 486.816 355.621 487.522 356C487.791 356.144 488.267 356.9 488.407 356.889C488.527 356.879 489.887 355.868 490.103 355.792C491.279 355.378 494.343 355.735 495.687 355.717L510.478 355.475Z"/>
	<defs>
		<linearGradient id="gradient_1" gradientUnits="userSpaceOnUse" x1="541.79889" y1="330.63284" x2="551.53131" y2="304.80328">
			<stop offset="0" stop-color="#4FABA2"/>
			<stop offset="1" stop-color="#87BABA"/>
		</linearGradient>
	</defs>
	<path fill="url(#gradient_1)" transform="scale(0.281319 0.28125)" d="M488.487 288.909C494.821 287.845 501.525 288.142 507.876 288.971C512.115 289.525 517.435 291.699 521.435 290.378C533.945 296.155 546.708 305.298 554.473 316.889C557.181 320.932 560.021 327.048 563.778 330.057L566.209 338.554L562.384 339.606L559.199 339.349C553.792 329.096 546.872 318.18 539.29 309.358C535.383 304.812 530.746 303.262 527.747 297.868C523.744 290.668 513.952 293.016 507.286 290.775C501.532 288.841 494.919 291.695 489.109 289.193L488.487 288.909Z"/>
	<path fill="#026A6F" transform="scale(0.281319 0.28125)" d="M432.423 364.884C436.698 379.256 442.608 388.694 453.171 398.947C456.179 401.867 459.12 405.314 462.861 407.294L468.505 409.811L471.445 412.667C471.377 413.712 471.362 414.569 470.996 415.564L470.33 415.729C469.336 416.01 468.571 416.415 467.664 416.893L466.997 418.231L464.998 418.444L466.227 416.941C464.506 415.099 463.378 413.846 460.762 413.725L458.828 413.695C457.956 413.685 457.277 413.569 456.447 413.312L454.93 414.407C448.5 410.483 443.749 405.51 438.538 400.175C435.972 397.087 433.946 393.552 432.348 389.881C433.641 389.533 435.006 389.491 436.338 389.366L437.375 388C435.372 384.479 432.615 380.561 431.928 376.538L431.852 375.985L432.014 371.396C431.881 369.199 432.182 367.068 432.423 364.884Z"/>
	<path fill="#01A8A5" transform="scale(0.281319 0.28125)" d="M436.424 401.1L438.538 400.175C443.749 405.51 448.5 410.483 454.93 414.407L456.447 413.312C457.277 413.569 457.956 413.685 458.828 413.695L460.762 413.725C463.378 413.846 464.506 415.099 466.227 416.941L464.998 418.444L466.997 418.231L467.664 416.893C468.571 416.415 469.336 416.01 470.33 415.729L470.996 415.564C471.362 414.569 471.377 413.712 471.445 412.667L468.505 409.811C472.936 411.131 477.575 412.265 481.804 414.142C488.446 414.828 495.163 414.516 501.821 414.171C502.688 414.933 503.801 416.184 504.766 416.761C507.414 418.346 511.181 416.61 513.731 418.593L513.104 421.076C510.441 421.291 507.055 421.557 505.134 423.653L504.57 424.321C503.23 424.577 501.999 424.639 500.884 425.465L500.638 426.871L499.972 429.388C496.959 429.27 494.379 428.228 491.436 427.878C487.404 427.398 482.661 428.179 478.83 426.843C474.175 425.22 470.361 424.623 465.441 425.054C461.808 422.164 457.462 420.895 453.741 418.142C451.349 416.372 449.426 413.458 447.284 411.313C443.756 407.78 439.883 404.781 436.424 401.1Z"/>
	<path fill="#EDF4F4" transform="scale(0.281319 0.28125)" d="M513.731 418.593C509.612 418.01 504.865 418.766 500.664 418.74C495.635 418.708 490.546 417.829 485.588 417.052C482.542 416.575 479.299 416.36 476.634 414.721L481.804 414.142C488.446 414.828 495.163 414.516 501.821 414.171C502.688 414.933 503.801 416.184 504.766 416.761C507.414 418.346 511.181 416.61 513.731 418.593Z"/>
	<path fill="#094851" transform="scale(0.281319 0.28125)" d="M436.424 401.1L438.538 400.175C443.749 405.51 448.5 410.483 454.93 414.407C465.648 422.596 487.407 426.053 500.884 425.465L500.638 426.871L499.972 429.388C496.959 429.27 494.379 428.228 491.436 427.878C487.404 427.398 482.661 428.179 478.83 426.843C474.175 425.22 470.361 424.623 465.441 425.054C461.808 422.164 457.462 420.895 453.741 418.142C451.349 416.372 449.426 413.458 447.284 411.313C443.756 407.78 439.883 404.781 436.424 401.1Z"/>
	<path fill="#A2CCCD" transform="scale(0.281319 0.28125)" d="M457.778 355.661L458.802 352.889L456.027 350.178C453.41 339.439 454.656 328.921 454.882 317.778L455.682 317.985L455.889 327.556L457.222 326.676C459.688 327.582 462.154 326.441 464.775 326.893C470.978 327.964 479.575 327.115 485.96 326.722C487.9 326.602 489.556 327.277 491.463 326.907C492.58 326.69 493.357 326.657 494.481 326.817L494.99 326.893C496.742 327.088 498.273 327.522 499.954 328.029L538.208 328.475L539.685 330.521C541.072 334.219 540.141 339.046 540.33 343.019L539.868 346.3C535.02 347.333 529.702 346.485 524.761 346.581L493.584 347.648C488.668 349.337 484.511 349.051 479.628 350.021L478.811 349.715L477.126 349.142C471.912 347.468 464.189 348.478 458.676 348.566L457.888 349.782L460.088 352.592L459.666 354.444C467.267 354.353 475.982 353.673 483.438 354.449C488.304 354.955 494.742 354.927 499.633 354.504C501.115 354.376 502.552 354.497 504.034 354.304C506.066 354.04 508.664 354.515 510.478 355.475L495.687 355.717C494.343 355.735 491.279 355.378 490.103 355.792C489.887 355.868 488.527 356.879 488.407 356.889C488.267 356.9 487.791 356.144 487.522 356C486.816 355.621 484.761 355.657 483.882 355.634L457.778 355.661Z"/>
	<path fill="#FEFEFE" transform="scale(0.281319 0.28125)" d="M499.954 328.029L538.208 328.475L539.685 330.521L538.067 332.637L473.655 333.28C470.66 333.288 461.303 334.26 458.999 333.288C458.403 333.037 457.474 332.005 456.94 331.556L456.972 329.333C461.493 327.696 468.996 328.705 473.916 328.71L499.954 328.029Z"/>
	<path fill="#FEFEFE" transform="scale(0.281319 0.28125)" d="M493.584 347.648L474.849 347.232L457.68 347.311C456.563 345.436 456.873 345.148 457.222 343.069C463.122 340.983 533.775 341.465 540.33 343.019L539.868 346.3C535.02 347.333 529.702 346.485 524.761 346.581L493.584 347.648Z"/>
	<path fill="#7FC4BD" transform="scale(0.281319 0.28125)" d="M1267.39 558.354C1275.39 556.368 1285.15 557.781 1293.41 557.825L1344.89 558.075L1440.22 557.751C1457.84 557.723 1475.52 556.723 1493.05 558.581C1495.19 566.14 1494.76 574.495 1494.93 582.32L1495.2 622.5C1490.53 623.516 1483.73 622.638 1478.85 622.623L1438.64 622.518L1265.42 622.666L1263.54 581.333C1263.14 578.29 1263.78 576.636 1264.12 573.778C1264.86 567.545 1264.23 564.039 1267.39 558.354Z"/>
	<path fill="#FEFEFE" transform="scale(0.281319 0.28125)" d="M1400.77 259.727C1394.3 254.169 1387.46 247.445 1385.38 238.887C1383.13 229.63 1383.95 215.742 1389.17 207.556C1396.43 196.16 1407.68 189.144 1420.73 186.459C1431.44 184.255 1442.49 186.601 1451.54 192.699C1462.33 199.962 1468.17 210.45 1470.48 222.981C1470.96 235.846 1468.8 245.354 1459.72 255.17C1455.18 260.073 1449.91 264.81 1443.65 267.343C1441.28 268.3 1435.25 269.155 1433.49 270.687C1433.13 270.996 1432.62 272.397 1432.38 272.884C1430.08 286.699 1431.68 300.947 1431.35 314.864L1540.04 314.467L1567.72 314.329C1577.51 314.054 1588.95 313.423 1598.65 315.217C1605.39 316.464 1612.95 320.729 1617.88 325.428C1626.44 333.591 1627.17 341.499 1627.51 352.511C1624.58 358.829 1620.12 364.287 1613.38 366.745C1604.89 369.848 1593.82 368.772 1584.88 368.787L1543.96 368.758L1525.46 368.658L1431.43 368.382L1433.24 422.222C1431.11 424.013 1430.23 423.625 1427.55 423.556C1427.26 423.112 1426.52 422.245 1426.4 421.778C1426.08 420.553 1426.67 417.877 1426.75 416.466L1427.17 403.084L1426.26 369.778L1424.54 368.278L1393 368.094C1387.09 368.048 1380.26 368.634 1374.65 366.566C1368.47 364.286 1362.2 359.029 1359.64 352.827C1358.14 349.215 1357.04 322.444 1358.27 319.65C1358.78 318.478 1360.22 318.258 1361.37 317.778L1361.89 314.48L1426.61 314.574L1427.18 273.843C1427.21 273.157 1427.3 272.288 1427.16 271.599C1426.67 269.256 1425.44 269.765 1423.52 269.617C1414.58 268.93 1408.08 264.463 1400.77 259.727Z"/>
	<path fill="#C7E0E0" transform="scale(0.281319 0.28125)" d="M1445.05 225.333L1445.86 225.35C1449.17 227.276 1445.86 229.363 1446.87 232C1447.17 232.795 1448.57 234.223 1449.12 234.949L1448.76 237.465L1446.31 237.888L1439.65 231.645L1445.05 225.333Z"/>
	<path fill="#D8EBEF" transform="scale(0.281319 0.28125)" d="M1422 213.366C1423.2 210.853 1424.2 207.595 1426.76 206.263C1429.44 207.126 1430.24 208.36 1432.09 210.4C1434.83 208.708 1435.9 206.838 1439.2 206.189C1440.64 207.584 1442.26 208.93 1443.2 210.715C1445.54 211.345 1445.8 211.907 1447.4 213.778C1445.58 215.826 1445.5 215.74 1442.76 216.07C1441.55 214.238 1441.55 214.181 1441.8 212C1440.13 212.266 1438.62 212.662 1437.01 213.179C1435.27 212.647 1433.6 211.734 1431.83 212.625L1429.6 214.254L1428.51 212.393L1424.88 212L1422.72 214.455L1422 213.366Z"/>
	<path fill="#C7E0E0" transform="scale(0.281319 0.28125)" d="M1412.14 239.789C1412.81 240.719 1413.04 241.288 1414.08 241.776L1412.63 245.333C1413.02 247.669 1413.72 248.853 1415.24 250.659L1417.35 253.333C1415.25 255.655 1415.22 255.626 1412.1 255.954C1408.48 254.289 1405.4 252.49 1403.42 248.889C1405.46 245.068 1408.88 242.524 1412.14 239.789Z"/>
	<path fill="#A2CCCD" transform="scale(0.281319 0.28125)" d="M1412.14 239.789C1412.79 237.367 1407.72 235.433 1406.7 232.949C1405.7 230.5 1405.67 226.757 1406.78 224.444L1408.99 223.783C1411.31 225.292 1411.74 226.512 1413.03 228.889C1415.35 233.194 1421.32 236.049 1425.37 238.667C1427.4 237.446 1429.02 235.117 1430.57 233.333C1429.28 231.852 1429.31 231.766 1427.25 231.4L1425.24 234.222C1423.36 234.387 1422.52 234.007 1420.97 232.835C1418.21 230.739 1417.83 228.064 1417.5 224.889L1418.76 223.564C1419.4 226.805 1420.83 228.008 1423.21 230.109C1424.77 229.074 1423.08 227.344 1423.65 224.889C1422.06 223.196 1420.73 221.787 1419.85 219.585L1419.67 219.111C1414.85 217.274 1415.14 222.658 1411.55 223.325C1411.04 219.539 1411.91 217.265 1413.47 213.833L1412.99 212.623C1411.3 213.86 1409.74 214.934 1407.79 215.731C1408.02 212.971 1412.41 208.659 1414.24 206.337L1422 213.366L1422.72 214.455L1424.88 212L1428.51 212.393L1429.6 214.254L1431.83 212.625C1433.6 211.734 1435.27 212.647 1437.01 213.179L1441.5 217.333C1441.15 222.587 1436.2 222.814 1435.15 226.483C1434.82 227.608 1444.55 239.32 1445.93 240.896C1447.6 242.804 1449.34 244.626 1450.72 246.766C1447.39 250.76 1444.23 254.087 1440.09 257.294L1437.21 256.618L1436.31 255.111L1437.19 252L1436.46 251.495C1434.57 250.164 1433.4 249.394 1432.62 247.111L1433.42 246.562L1436.54 247.895C1438.36 246.897 1439.03 246.792 1439.97 244.889C1439.03 242.234 1437.85 241.709 1435.65 240.071C1433.29 240.448 1432.11 241.146 1430.63 243.111L1430.27 243.759C1429.8 244.541 1429.39 244.719 1428.66 245.234C1427.32 246.183 1427.03 246.816 1426.37 248.262C1425.93 249.241 1425.3 249.803 1424.54 250.541L1420.05 250.222C1418.5 245.791 1418.49 244.196 1414.08 241.776C1413.04 241.288 1412.81 240.719 1412.14 239.789Z"/>
	<path fill="#FEFEFE" transform="scale(0.281319 0.28125)" d="M1422.72 214.455L1424.88 212L1428.51 212.393L1429.6 214.254L1429.87 215.89C1432.65 216.435 1432.71 216.456 1434.47 218.667L1434.04 221.06C1433.12 221.584 1432.46 222.288 1431.38 221.995C1429.04 221.354 1424.28 216.378 1422.72 214.455Z"/>
	<path fill="#026A6F" transform="scale(0.281319 0.28125)" d="M1367.43 316.889C1375.01 315.833 1382.96 316.268 1390.6 316.29L1426.3 316.449L1426.38 354.171C1426.38 357.224 1427.22 364.045 1425.54 366.504L1423.44 366.568L1393.03 366.308C1388.1 366.254 1381.73 366.837 1377.1 365.001C1371.62 362.827 1366.4 357.881 1364.14 352.444C1361.93 347.147 1361.04 326.1 1363.33 320.648C1364.46 317.938 1364.77 317.955 1367.43 316.889Z"/>
	<path fill="#026A6F" transform="scale(0.281319 0.28125)" d="M1531.62 316.474L1567.98 316.051C1580.76 315.952 1596.15 314.096 1607.65 320.429C1613.3 323.068 1618.83 327.193 1622.09 332.59C1624.83 337.127 1627.17 345.429 1625.82 350.586L1624.3 356.129C1621.55 359.159 1618.94 362.226 1615.18 364.011L1614.65 364.257C1610.74 366.144 1606.32 366.703 1602.02 366.944C1577.39 368.324 1551.78 366.884 1527.09 366.587L1431.64 366.409L1431.32 316.511L1490.33 316.503L1512.78 316.447L1531.62 316.474Z"/>
	<path fill="#094851" transform="scale(0.281319 0.28125)" d="M1490.33 316.503L1512.78 316.447L1511.11 318.491C1506.06 319.686 1496.62 319.999 1491.71 318.384C1490.83 318.094 1490.73 317.294 1490.33 316.503Z"/>
	<path fill="#071920" transform="scale(0.281319 0.28125)" d="M1520.4 616.673L1635.88 731.557L1635.87 754.612L1635.74 755.476C1633.53 770.247 1634.56 786.196 1634.52 801.128C1634.47 819.978 1633.77 839.125 1634.9 857.938L1596.78 858.117C1589.95 858.138 1582.06 857.374 1575.35 858.551L223.641 858.464L224.152 842.653L377.373 841.837L582.044 841.732L605.541 842.147C608.839 842.133 612.454 842.577 615.682 842.062L655.538 841.764L755.141 841.661L991.4 841.816L1028.17 842.277C1033.52 842.4 1042.3 843.901 1047.16 841.984L1048.03 841.786L1111.09 841.737L1121.57 841.842L1153.7 841.6C1157.6 841.608 1163.17 842.322 1166.82 841.409L1170.85 841.695L1224.49 841.956L1235.43 841.871L1348.37 841.506L1465.17 841.51L1520.19 841.785L1520.36 622.666L1520.4 616.673Z"/>
	<path fill="#FEFEFE" transform="scale(0.281319 0.28125)" d="M488.844 593.428C489.65 593.633 491.317 593.818 491.971 594.222C492.527 594.566 493.121 596.182 493.657 596.401C495.994 597.353 503.951 596.399 506.752 596.399L562.388 596.462C566.729 596.484 577.237 595.264 580.546 597.752L581.21 599.235L582.044 841.732L377.373 841.837L377.291 596.315L445.669 596.307L447.065 594.667C449.113 592.839 459.511 593.622 462.676 593.591L488.844 593.428Z"/>
	<path fill="#7FC4BD" transform="scale(0.281319 0.28125)" d="M448.529 622.191L475.708 622.171L475.861 644.889C476.758 637.489 476.152 629.513 476.353 622.013L502.179 622.209L503.292 797.111L502.699 821.461L448.038 821.402L448.529 622.191Z"/>
	<path fill="#7FC4BD" transform="scale(0.281319 0.28125)" d="M388.784 622.223L420.529 622.014L420.759 713.333L421.884 622.249L447.081 622.238L447.066 756.923L447.287 801.139C447.288 807.334 448.068 814.898 446.833 820.889L443.892 821.373L421.811 821.425L421.81 753.714L421.78 735.622C421.767 732.8 422.168 729.693 420.942 727.111L420.802 821.345L389.233 821.398L388.784 622.223Z"/>
	<path fill="#7FC4BD" transform="scale(0.281319 0.28125)" d="M503.792 622.459L530.995 622.197L531.177 723.111C531.213 729.358 529.097 740.894 531.87 746.213L531.925 622.091L570.382 622.299L570.494 698.145L570.079 821.437L503.511 821.47L503.792 622.459Z"/>
	<path fill="#FEFEFE" transform="scale(0.281319 0.28125)" d="M1261.63 622.256L1265.42 622.666L1438.64 622.518L1478.85 622.623C1483.73 622.638 1490.53 623.516 1495.2 622.5L1520.36 622.666L1520.19 841.785L1465.17 841.51L1348.37 841.506L1235.43 841.871L1236.47 622.133L1261.63 622.256Z"/>
	<path fill="#7FC4BD" transform="scale(0.281319 0.28125)" d="M1312.59 746.623C1310.41 744.551 1308.36 742.762 1308.14 739.556C1307.93 736.511 1308.34 733.548 1310.47 731.232C1312.49 729.02 1314.8 728.56 1317.65 728.252C1331.87 726.71 1347.83 728.212 1362.22 728.297L1428.78 728.218C1432.64 728.302 1438.23 727.753 1441.01 730.606C1442.95 732.602 1444.08 735.359 1443.97 738.16C1443.83 741.342 1443.05 743.997 1440.59 746.115L1438.74 747.576C1432.81 748.625 1426.61 748.237 1420.6 748.221L1392.12 748.111L1346.77 747.976C1336.14 748.036 1322.71 749.753 1312.59 746.623Z"/>
	<path fill="#EDF4F4" transform="scale(0.281319 0.28125)" d="M1312.59 746.623C1322.71 749.753 1336.14 748.036 1346.77 747.976L1392.12 748.111L1420.6 748.221C1426.61 748.237 1432.81 748.625 1438.74 747.576L1438.9 748.026C1439.52 749.654 1440.1 750.394 1441.39 751.556L1442.69 807.56C1442.83 818.257 1443.8 829.893 1442.35 840.507L1464.4 840.582L1465.17 841.51L1348.37 841.506C1349.5 840.136 1350.27 840.581 1352.01 840.581C1356.87 840.582 1378.94 841.66 1381.77 840.041C1381.38 833.916 1380.96 827.745 1380.03 821.674C1379.84 820.409 1379.7 817.53 1379.12 816.457C1377.85 814.11 1373.43 810.242 1370.95 808.958C1369.87 808.399 1364.89 807.213 1364.46 806.69C1361.41 802.955 1361.88 797.015 1357.79 793.226C1354.7 790.368 1347.3 789.579 1343.27 787.807C1340 786.368 1337.39 784.052 1334.34 782.263C1331.19 780.415 1327.4 779.308 1324.57 776.987C1321.69 774.622 1319.73 770.638 1317.11 767.906C1313.22 763.856 1308.94 761.22 1305.42 756.641C1306.14 753.751 1310.86 750.187 1312.36 747.119L1312.59 746.623Z"/>
	<path fill="#FEFEFE" transform="scale(0.281319 0.28125)" d="M837.698 529.789L1126.4 239.802L1181.43 297.297C1192.93 287.772 1203.03 276.661 1213.4 265.945C1217.32 261.898 1221.54 256.467 1226.13 253.272L1267.51 296.588L1293.98 325.478C1300.46 333.025 1307.45 341.556 1311.65 350.616C1296.88 358.958 1285.44 374.184 1273.78 386.409L1242.2 418.551L1119.02 542.682L1020.19 645.888L929.995 738.596C914.194 754.65 896.177 770.18 881.883 787.521L804.108 710.566L801.277 707.947C798.392 705.571 795.963 703.04 793.508 700.225L577.791 485.82L646.62 414.712L682.908 378.06L837.698 529.789Z"/>
	<path fill="#EDF4F4" transform="scale(0.281319 0.28125)" d="M1063.08 445.302C1063.77 448.026 1064.01 450.693 1064.26 453.485C1062.35 456.686 1059.1 459.375 1056.55 462.098C1054.3 464.495 1052.44 467.598 1050.02 469.757C1045.35 473.936 1039.62 477.837 1034.64 481.741C1039.76 468.938 1062.17 456.595 1063.08 445.302Z"/>
	<path fill="#D8EBEF" transform="scale(0.281319 0.28125)" d="M1062.26 444.838L1063.08 445.302C1062.17 456.595 1039.76 468.938 1034.64 481.741L1012.29 504.596C1008.72 508.399 1005.63 512.639 1002.01 516.368C998.5 519.973 994.34 522.666 990.788 526.241L971.042 547.282L940.172 578.057L902.991 614.833C899.998 617.655 897.572 621.329 894.357 623.779C886.685 629.625 879.904 638.211 873.07 645.037C870.572 647.531 867.432 649.352 865.047 651.943C862.562 654.642 861.127 658.076 858.457 660.736L821.057 694.887C816.238 699.741 814.716 705.205 807.915 707.887C806.519 708.438 805.249 709.615 804.108 710.566L801.277 707.947C801.598 706.422 801.477 706.104 802.924 705.333C808.216 702.515 811.425 696.937 815.663 692.903C818.036 690.643 821.217 688.691 823.32 686.252C839.367 667.643 858.954 651.727 876.709 634.805C884.028 627.829 890.969 619.621 897.948 612.214C903.019 606.831 908.902 602.228 913.758 596.503C919.43 593.299 924.121 587.208 928.485 582.379L958.507 552.712C959.747 551.411 960.272 549.755 961.485 548.456L994.646 513.333C997.765 510.228 1001.65 507.898 1004.7 504.706C1006.9 502.392 1007.87 499.109 1010.04 496.823L1026.86 480.519C1029.35 477.852 1031.27 474.742 1033.84 472.084L1052.21 453.981C1055.24 451.156 1060.25 448.363 1062.26 444.838Z"/>
	<defs>
		<linearGradient id="gradient_2" gradientUnits="userSpaceOnUse" x1="898.2348" y1="589.92224" x2="908.79865" y2="600.80975">
			<stop offset="0" stop-color="#97B7BB"/>
			<stop offset="1" stop-color="#BAD9DC"/>
		</linearGradient>
	</defs>
	<path fill="url(#gradient_2)" transform="scale(0.281319 0.28125)" d="M991.036 499.449C995.866 492.597 1003.5 486.204 1009.33 480.061L1051.81 435.738C1054.9 437.75 1057.47 440.568 1060.09 443.141L1062.26 444.838C1060.25 448.363 1055.24 451.156 1052.21 453.981L1033.84 472.084C1031.27 474.742 1029.35 477.852 1026.86 480.519L1010.04 496.823C1007.87 499.109 1006.9 502.392 1004.7 504.706C1001.65 507.898 997.765 510.228 994.646 513.333L961.485 548.456C960.272 549.755 959.747 551.411 958.507 552.712L928.485 582.379C924.121 587.208 919.43 593.299 913.758 596.503C908.902 602.228 903.019 606.831 897.948 612.214C890.969 619.621 884.028 627.829 876.709 634.805C858.954 651.727 839.367 667.643 823.32 686.252C821.217 688.691 818.036 690.643 815.663 692.903C811.425 696.937 808.216 702.515 802.924 705.333C801.477 706.104 801.598 706.422 801.277 707.947C798.392 705.571 795.963 703.04 793.508 700.225C798.296 696.571 802.663 691.128 806.968 686.811L843.09 649.841L942.764 549.191C958.86 532.852 973.948 514.733 991.036 499.449Z"/>
	<path fill="#C7E0E0" transform="scale(0.281319 0.28125)" d="M913.758 596.503C914.063 593.03 917.633 588.001 920.14 585.637C922.938 582.999 924.767 582.24 928.485 582.379C924.121 587.208 919.43 593.299 913.758 596.503Z"/>
	<path fill="#A2CCCD" transform="scale(0.281319 0.28125)" d="M991.036 499.449C995.866 492.597 1003.5 486.204 1009.33 480.061L1051.81 435.738C1054.9 437.75 1057.47 440.568 1060.09 443.141L1059.62 443.479C1057.65 444.88 1055.43 445.729 1053.55 447.204L1051.8 448.398C1046.47 451.897 1041.94 457.404 1037.44 461.917C1036.1 463.257 1034.52 465.447 1032.64 465.782L1032.06 466.613C1031.4 467.535 1030.85 467.775 1029.98 468.449C1027.75 470.151 1025.92 472.303 1024.64 474.671L1022.43 477.333C1022.42 478.767 1022.66 479.766 1021.54 480.889C1020.46 481.965 1019.09 482.85 1017.97 484.009C1016.71 483.666 1016.58 483.67 1015.76 482.671C1014.9 485.256 1014.45 485.714 1012.42 487.56L1011.31 486.227L1005.09 492.227L1003.76 491.556C1004.15 489.432 1005.23 487.979 1006.43 486.222L1005.98 485.778C1002.4 489.589 996.105 498.125 991.036 499.449Z"/>
	<path fill="#EDF4F4" transform="scale(0.281319 0.28125)" d="M646.62 414.712L682.908 378.06L837.698 529.789C837.327 530.621 836.24 531.475 835.585 532.159L816.967 550.888C811.839 555.959 806.677 563.145 798.916 563.318C787.679 557.666 779.928 547.105 770.923 538.685L723.493 493.02L709.53 480.244L694.565 465.333C691.205 461.767 688.31 457.696 684.761 454.319C680.896 450.642 675.823 448.312 670.903 446.417C667.572 445.134 663.334 444.076 660.865 441.341C658.497 438.719 657.349 434.359 656.007 431.111C653.707 425.54 651.141 420.129 647.263 415.477L646.62 414.712Z"/>
</svg>
