<?xml version="1.0" encoding="UTF-8" standalone="no"?>
<!-- Created with Inkscape (http://www.inkscape.org/) -->

<svg
   width="413.80276"
   height="529.70874"
   viewBox="0 0 109.48531 140.1521"
   version="1.1"
   id="svg1"
   xml:space="preserve"
   xmlns="http://www.w3.org/2000/svg"
   xmlns:svg="http://www.w3.org/2000/svg"><defs
     id="defs1" /><g
     id="layer1"
     transform="translate(-119.48531)"><g
       id="g3"
       transform="matrix(0.97074143,0,0,0.97074143,-548.5725,-12.533845)"
       style="fill:#000000;fill-opacity:1;stroke:#000000;stroke-opacity:1"><g
         id="g1"
         transform="matrix(0.26458333,0,0,0.26458333,676.46399,13.822743)"
         style="fill:#000000;fill-opacity:1;stroke:#000000;stroke-opacity:1"><path
           id="path1"
           style="fill:#000000;fill-opacity:1;stroke:#000000;stroke-width:1.1401;stroke-opacity:1"
           d="m 212.35962,5.2624267 c -6.76566,-0.044513 -13.5464,2.7137413 -18.74023,9.1875003 -0.79806,0.994957 -1.60854,2.517128 -2.60156,3.232422 -10.22889,-4.536538 -19.5425,2.128614 -28.21289,7.222656 -8.67154,5.094612 -17.12984,10.603277 -25.16407,16.65625 -66.251505,51.23912 -99.132748,138.845315 -80.843748,221.052735 15.090135,67.82746 63.106888,130.14434 127.429688,157.74024 16.01487,6.87019 34.4673,7.90152 39.03906,28.20312 2.40103,10.6667 -0.98733,8.92987 -6.01171,18.08594 -10.65985,19.42601 -3.3669,46.74289 14.80273,58.97266 42.06481,28.31302 90.09153,-22.47381 64.63672,-61.08985 l -3.64453,-5.14453 c -1.47756,-2.13539 -1.49616,-2.8073 -1.16211,-5.4375 2.21748,-17.46961 11.74978,-23.4767 26.56641,-28.33008 34.62229,-11.34275 67.66279,-35.62053 91.50781,-63.25976 30.82693,-35.73161 50.64782,-83.72722 53.96094,-130.57813 l 0.52734,-20.19726 c -0.0331,-5.40632 -0.0424,-10.88947 -0.87695,-16.24219 l -1.69141,-12.95117 C 453.17195,125.7902 421.30701,73.084176 375.24049,39.072974 c -12.05988,-8.90377 -30.80317,-23.062155 -46.58204,-22.31836 -3.78738,0.178538 -2.87081,0.849517 -5.48047,-2.033203 C 317.02377,7.9201961 310.3836,4.7205991 301.1272,5.4186767 269.3711,9.4416025 268.88368,55.476524 299.83033,59.797584 l 0.49219,0.07617 c 9.80706,1.4429 19.31452,-2.230219 25.00586,-10.304687 25.90857,12.792622 45.12755,27.100015 63.08398,49.925782 23.00476,29.243341 38.31855,64.964481 41.42188,102.208991 6.37082,76.45907 -39.92761,154.67181 -109.92579,186.14062 -24.33866,10.94145 -44.93907,14.86535 -57.35351,43.21485 -2.21063,5.04947 -3.59915,13.34787 -7.66016,2.38476 -10.92891,-29.4953 -31.5615,-34.54892 -57.41992,-45.50976 -31.78232,-13.47018 -58.28353,-37.05828 -77.37891,-65.54688 -47.076771,-70.24102 -45.149334,-155.6094 6.63281,-221.97071 12.38938,-15.878155 28.28932,-30.375046 45.3086,-41.121091 L 192.48267,48.035864 C 203.23146,69.31886 236.46667,60.462632 239.6897,36.537817 242.04976,19.023835 227.24409,5.3603557 212.35962,5.2624267 Z M 262.39087,463.74876 c 2.46199,0.0268 2.70829,2.1463 2.70118,3.96094 l -0.0332,12.80859 c 1.17195,0.12839 2.45446,0.0267 3.63672,0.0274 l 9.19532,0.008 c 3.0212,0.0105 3.16308,2.12895 3.16406,4.6582 l 0.01,7.65625 c 0.003,0.92916 0.16101,2.14777 -0.21875,3.02539 l -0.0332,0.0762 c -0.77672,1.79721 -2.06618,1.93219 -3.75586,1.92188 l -11.97656,-0.008 0.004,8.98047 c 0.005,2.28522 0.77057,5.61889 -2.08984,6.46484 h -0.002 c -0.24623,0.0582 -0.50131,0.0825 -0.75391,0.082 l -9.96289,-0.0195 c -3.00353,-0.002 -3.62648,-1.27045 -3.58008,-3.91016 l 0.0274,-11.59765 -11.60938,0.0156 c -2.59332,2.4e-4 -4.24924,-0.86943 -4.29883,-3.62109 l -0.006,-10.05664 c 0.004,-3.11154 1.03157,-3.69713 3.73438,-3.67578 l 12.16601,0.008 -0.002,-13.02149 c -2.4e-4,-0.5251 -0.0712,-1.16009 0.082,-1.66211 l 0.0312,-0.0957 c 0.32527,-1.03939 1.08066,-1.71076 2.13281,-2.00976 z" /></g><path
         d="m 748.31099,35.533349 -10e-4,6.023805 c 0.22588,0.02173 0.45031,0.02687 0.67706,0.05396 0.83872,0.09865 1.6735,0.232374 2.5017,0.400226 0.82821,0.167852 1.64985,0.369652 2.46233,0.604131 0.81247,0.234479 1.61565,0.501614 2.40718,0.800158 0.79154,0.298549 1.57122,0.628557 2.3366,0.988607 0.76538,0.360045 1.51653,0.750189 2.25054,1.169172 0.73401,0.418984 1.45101,0.866801 2.14844,1.342155 0.69743,0.475359 1.37524,0.978396 2.03089,1.507557 0.65564,0.529161 1.28922,1.08438 1.89786,1.664785 0.3977,0.379684 0.78522,0.769478 1.16217,1.168884 0.37695,0.399407 0.74339,0.808524 1.09887,1.226638 0.35547,0.418114 0.69995,0.845384 1.03323,1.28119 0.33329,0.435805 0.65519,0.880337 0.96556,1.332824 0.31038,0.45248 0.60908,0.912813 0.89585,1.380952 0.28676,0.46814 0.56164,0.943968 0.82408,1.42675 0.26242,0.482788 0.5126,0.972638 0.74998,1.469053 0.23738,0.496415 0.46194,0.999407 0.67356,1.508432 0.32255,0.77331 0.6146,1.56758 0.87455,2.375973 0.25993,0.808393 0.48798,1.631017 0.68289,2.461449 0.0995,0.423911 0.165,0.853225 0.24707,1.280314 0.0787,0.409568 0.17448,0.816884 0.23687,1.227806 0.12745,0.839423 0.22074,1.680038 0.2783,2.515414 0.0528,0.745249 0.0703,1.488613 0.07,2.230994 -2e-5,0.08125 0.008,0.162958 0.008,0.24416 -0.007,0.823223 -0.0459,1.644447 -0.11698,2.462905 -0.0711,0.818464 -0.17405,1.634337 -0.30863,2.446862 -0.13457,0.812525 -0.30075,1.621901 -0.49795,2.427319 -0.20924,0.857673 -0.45624,1.705767 -0.73919,2.541668 -0.28295,0.835901 -0.60202,1.659542 -0.95506,2.468449 -0.35303,0.808901 -0.74005,1.603086 -1.15955,2.379766 -0.41948,0.77668 -0.87121,1.535816 -1.35353,2.275048 -0.48232,0.739225 -0.99519,1.45831 -1.53673,2.154861 -0.54152,0.696544 -1.11171,1.370571 -1.70883,2.019213 -0.59711,0.648642 -1.22137,1.272017 -1.87044,1.867523 -0.64908,0.595506 -1.32297,1.163233 -2.02038,1.700376 -0.52495,0.408162 -1.06357,0.798656 -1.61403,1.171216 -0.55047,0.372559 -1.11301,0.727078 -1.68638,1.063286 -0.57337,0.3362 -1.15746,0.65421 -1.75113,0.9533 -0.59367,0.2991 -1.19696,0.57919 -1.80831,0.84042 -0.61135,0.26122 -1.2309,0.50346 -1.85731,0.72607 -0.62642,0.2226 -1.25958,0.42557 -1.89845,0.60879 -0.63887,0.18322 -1.28328,0.3467 -1.93199,0.48978 -0.64872,0.14309 -1.30172,0.26594 -1.95767,0.36814 -0.56308,0.0901 -1.12844,0.16368 -1.69542,0.22112 -0.0176,0.002 -0.0352,0.002 -0.0528,0.004 l -10e-4,5.90333 c 0.94507,-0.0386 1.88836,-0.11282 2.82783,-0.22257 1.94439,-0.30796 3.86157,-0.76824 5.73384,-1.37658 1.8722,-0.60827 3.6937,-1.36273 5.44769,-2.25637 1.75408,-0.89373 3.43523,-1.92391 5.02791,-3.08105 1.59262,-1.15709 3.09186,-2.43756 4.48387,-3.82956 1.392,-1.392005 2.67246,-2.891247 3.82956,-4.483868 1.15713,-1.592676 2.18731,-3.273826 3.08104,-5.027908 0.89365,-1.753987 1.6481,-3.575492 2.25637,-5.447684 0.60835,-1.87227 1.06862,-3.789457 1.37658,-5.733847 0.30788,-1.943882 0.46258,-3.908961 0.46266,-5.877076 v -0.0017 c 5e-5,-0.655901 -0.017,-1.3117 -0.0513,-1.966704 -0.0343,-0.654953 -0.0858,-1.308906 -0.15431,-1.961167 -0.0686,-0.65235 -0.15432,-1.302798 -0.257,-1.950661 -0.006,-0.03139 -0.0116,-0.06282 -0.0175,-0.09422 -0.0984,-0.616099 -0.21208,-1.229663 -0.34101,-1.840105 -0.13633,-0.641569 -0.28943,-1.279474 -0.45915,-1.913033 -0.16981,-0.633592 -0.35618,-1.262646 -0.55892,-1.886484 -0.20266,-0.623753 -0.42161,-1.242104 -0.65664,-1.854398 -0.23506,-0.612345 -0.48611,-1.218441 -0.7529,-1.817645 -0.26673,-0.599164 -0.54911,-1.191255 -0.84683,-1.77564 -0.29776,-0.584408 -0.61078,-1.160936 -0.93872,-1.728963 -0.32796,-0.568083 -0.67075,-1.127484 -1.02799,-1.677621 -0.35723,-0.55007 -0.7288,-1.090702 -1.11433,-1.621325 -0.38556,-0.530573 -0.78496,-1.050973 -1.19776,-1.560642 -0.41276,-0.509794 -0.83881,-1.008693 -1.27769,-1.496183 -0.43884,-0.487411 -0.89037,-0.963262 -1.35412,-1.427044 -0.46378,-0.463747 -0.93962,-0.915274 -1.42704,-1.354116 -0.48748,-0.438882 -0.98639,-0.864927 -1.49618,-1.27769 -0.50967,-0.412802 -1.03007,-0.812192 -1.56064,-1.197758 -0.53063,-0.385532 -1.07126,-0.757103 -1.62133,-1.114331 -0.55014,-0.357228 -1.10954,-0.700011 -1.67762,-1.02797 -0.56803,-0.327942 -1.14455,-0.640959 -1.72896,-0.938723 -0.58439,-0.297725 -1.17647,-0.580101 -1.77564,-0.846836 -0.59921,-0.266785 -1.2053,-0.517837 -1.81765,-0.752897 -0.61229,-0.235027 -1.23064,-0.453983 -1.8544,-0.656641 -0.62383,-0.202738 -1.25288,-0.389111 -1.88648,-0.558916 -0.63356,-0.16972 -1.27146,-0.322822 -1.91303,-0.459153 -0.64154,-0.136364 -1.28654,-0.255907 -1.93433,-0.358509 -0.64787,-0.102676 -1.29831,-0.188371 -1.95067,-0.256997 -0.289,-0.02608 -0.5783,-0.04883 -0.86783,-0.06826 z"
         style="fill:#181576;fill-opacity:1;fill-rule:evenodd;stroke:#181576;stroke-width:1.19484;stroke-linecap:round;stroke-linejoin:round;stroke-dasharray:none;stroke-opacity:1;paint-order:fill markers stroke"
         id="path2" /><path
         d="m 742.03806,35.648867 c -0.89074,0.03827 -1.77986,0.108225 -2.66564,0.209737 -1.94438,0.30796 -3.86158,0.768241 -5.73385,1.376578 -1.87218,0.608275 -3.6937,1.362731 -5.44767,2.256374 -1.75408,0.893722 -3.43525,1.923916 -5.02791,3.081041 -1.59262,1.157098 -3.09188,2.437576 -4.48388,3.829565 -1.39198,1.392 -2.67246,2.891253 -3.82956,4.483868 -1.15712,1.592671 -2.18732,3.273833 -3.08104,5.027909 -0.89365,1.753981 -1.6481,3.575503 -2.25638,5.447683 -0.59473,1.839287 -1.04668,3.721758 -1.35178,5.630579 -0.008,0.03443 -0.0166,0.06883 -0.0248,0.103268 -0.30735,1.941771 -0.46185,3.90471 -0.46207,5.870658 l -5.6e-4,0.0078 c 0,1.968596 0.15469,3.934171 0.46265,5.878533 0.30796,1.944384 0.76824,3.861582 1.37658,5.733847 0.60827,1.872186 1.36272,3.693697 2.25637,5.447684 0.89372,1.754076 1.92392,3.435238 3.08104,5.027909 1.1571,1.592615 2.43757,3.091868 3.82957,4.483868 1.392,1.391992 2.89125,2.672462 4.48387,3.829562 1.59267,1.15713 3.27383,2.18732 5.0279,3.08104 1.75399,0.89365 3.5755,1.6481 5.44769,2.25638 1.87226,0.60834 3.78946,1.06862 5.73385,1.37658 0.88268,0.1011 1.76868,0.17086 2.6563,0.20915 l 10e-4,-5.92054 c -0.16631,-0.0174 -0.33337,-0.0266 -0.49941,-0.0467 -0.56618,-0.0685 -1.13088,-0.15236 -1.69279,-0.25116 -0.5619,-0.0988 -1.12104,-0.21263 -1.67704,-0.34131 -0.55599,-0.12868 -1.10875,-0.27217 -1.6572,-0.43027 -0.54845,-0.15809 -1.09255,-0.33073 -1.63183,-0.51778 -0.53926,-0.18705 -1.07361,-0.38859 -1.60207,-0.60413 -0.52845,-0.21555 -1.05105,-0.44515 -1.56706,-0.68873 -0.51601,-0.24358 -1.02546,-0.501 -1.52739,-0.77216 -0.50193,-0.27116 -0.99654,-0.55614 -1.48276,-0.854415 -0.48622,-0.298278 -0.96401,-0.609991 -1.43288,-0.93493 -0.46887,-0.324939 -0.92873,-0.663132 -1.37862,-1.014275 -0.44989,-0.351137 -0.88984,-0.71528 -1.31911,-1.092158 -0.40556,-0.352204 -0.80265,-0.715726 -1.19047,-1.089832 -0.38782,-0.374101 -0.76643,-0.758583 -1.13533,-1.152836 -0.36891,-0.394253 -0.72819,-0.798243 -1.07699,-1.210888 -0.34881,-0.412638 -0.68705,-0.834117 -1.01457,-1.263391 -0.32752,-0.429274 -0.64417,-0.866508 -0.94923,-1.310651 -0.30505,-0.444148 -0.59868,-0.89511 -0.88008,-1.352366 -0.28141,-0.457262 -0.55059,-0.920801 -0.80717,-1.389415 -0.25656,-0.468614 -0.50047,-0.942415 -0.73102,-1.420625 -0.26853,-0.55655 -0.51962,-1.120953 -0.75349,-1.692502 -0.23387,-0.571555 -0.45055,-1.150363 -0.64963,-1.7348 -0.19909,-0.584436 -0.38073,-1.174596 -0.54492,-1.769803 -0.16419,-0.595207 -0.31102,-1.19541 -0.44019,-1.799265 -0.12917,-0.60386 -0.24055,-1.211339 -0.33459,-1.821731 -0.094,-0.610386 -0.17049,-1.223549 -0.22928,-1.83835 -0.0588,-0.614806 -0.1,-1.231464 -0.12339,-1.848567 -0.0148,-0.389178 -0.0101,-0.778605 -0.0108,-1.168004 l 28.3431,0.0034 5.7e-4,-5.974219 -27.79498,-0.0034 c 0.0653,-0.338063 0.1273,-0.676917 0.20391,-1.012525 0.11776,-0.515924 0.24875,-1.028715 0.39264,-1.537893 0.14389,-0.509178 0.30054,-1.014727 0.46994,-1.516013 0.1694,-0.501292 0.35151,-0.998385 0.54579,-1.490639 0.19429,-0.492255 0.40075,-0.979683 0.6193,-1.461755 0.21855,-0.482076 0.44915,-0.958633 0.69135,-1.42938 0.24221,-0.470748 0.49613,-0.935511 0.76136,-1.393789 0.26524,-0.458278 0.54169,-0.910036 0.82933,-1.354698 0.28765,-0.444663 0.5864,-0.882506 0.89585,-1.312407 0.30944,-0.429895 0.62969,-0.852023 0.9603,-1.266016 0.33062,-0.413993 0.67157,-0.819779 1.02274,-1.216725 0.35117,-0.39694 0.71259,-0.785175 1.0837,-1.163922 0.37111,-0.378741 0.75191,-0.747925 1.14234,-1.107326 0.34484,-0.318549 0.69719,-0.629014 1.05628,-0.930849 0.35908,-0.301828 0.72498,-0.594969 1.09741,-0.879795 0.37242,-0.284827 0.75134,-0.561219 1.13621,-0.828749 0.38487,-0.26753 0.77567,-0.526294 1.17209,-0.77624 0.39641,-0.249941 0.79828,-0.491081 1.20534,-0.723149 0.40706,-0.232063 0.81946,-0.454987 1.23627,-0.66889 0.41681,-0.213898 0.83832,-0.418899 1.26398,-0.614338 0.42565,-0.195444 0.85546,-0.381349 1.28906,-0.558041 0.43361,-0.176697 0.87087,-0.344086 1.31153,-0.501743 0.44066,-0.157658 0.88455,-0.305651 1.33136,-0.44398 0.44681,-0.138329 0.89651,-0.266931 1.34858,-0.385644 0.45206,-0.118707 0.90674,-0.227621 1.36316,-0.326418 0.45642,-0.0988 0.91466,-0.18744 1.37453,-0.26604 0.45988,-0.07861 0.92115,-0.147254 1.38358,-0.205368 0.20303,-0.02551 0.40686,-0.04149 0.61026,-0.06301 z"
         style="display:inline;fill:#14132f;fill-opacity:1;fill-rule:evenodd;stroke:#14132f;stroke-width:1.19484;stroke-linecap:round;stroke-linejoin:round;stroke-dasharray:none;stroke-opacity:1;paint-order:fill markers stroke"
         id="path3" /></g></g></svg>
